<?xml version="1.0" encoding="utf-8"?>
<!-- Generator: Adobe Illustrator 26.2.1, SVG Export Plug-In . SVG Version: 6.00 Build 0)  -->
<svg version="1.1" id="圖層_1" xmlns="http://www.w3.org/2000/svg" xmlns:xlink="http://www.w3.org/1999/xlink" x="0px" y="0px"
	 viewBox="0 0 32 32" style="enable-background:new 0 0 32 32;" xml:space="preserve">
<style type="text/css">
	.st0{fill:#FFFFFF;}
</style>
<g id="Map_pin_00000083767398493906806780000001619603684712574612_">
	<path class="st0" d="M16,0C8.9,0,3.2,5.8,3.2,12.8c0,6.2,6.6,13.4,12.2,18.6L16,32l0.6-0.6c6.2-5.9,12.2-12.2,12.2-18.5
		C28.8,5.8,23.1,0,16,0z M16,29.3C9,22.8,5.2,17,5.2,12.8C5.2,6.8,10.1,2,16,2c6,0,10.8,4.9,10.8,10.8C26.8,18.1,21.5,23.9,16,29.3z
		"/>
	<path class="st0" d="M16,7.9c-2.7,0-4.9,2.2-4.9,4.9s2.2,4.9,4.9,4.9s4.9-2.2,4.9-4.9S18.7,7.9,16,7.9z M16,15.9c-1.6,0-3-1.4-3-3
		s1.4-3,3-3s3,1.4,3,3S17.6,15.9,16,15.9z"/>
</g>
</svg>
