<?xml version="1.0" encoding="utf-8"?>
<!-- Generator: Adobe Illustrator 26.2.1, SVG Export Plug-In . SVG Version: 6.00 Build 0)  -->
<svg version="1.1" id="圖層_1" xmlns="http://www.w3.org/2000/svg" xmlns:xlink="http://www.w3.org/1999/xlink" x="0px" y="0px"
	 viewBox="0 0 113.4 113.4" style="enable-background:new 0 0 113.4 113.4;" xml:space="preserve">
<style type="text/css">
	.st0{fill:#FFFFFF;}
</style>
<g>
	<path class="st0" d="M43.7,33.7c6.2-7.2-0.5-16.7-4.7-23.2c-2.4-3.7-5.8-9.1-10.7-9.7c-4.6-0.5-8.8,4.6-11.9,7.5
		C9.1,14.9,5,23.6,4.6,33.5c0.1,1.1,0.1,3-0.1,1.3c0.7,6,1.4,11.6,3.5,17.3c1.9,5.3,4.6,10.2,7.7,15c6.6,9.9,14.2,19.5,23.2,27.5
		c8.8,7.8,18.7,14.8,30.4,17.4c11,2.2,21.7-0.1,30.4-7.2c3.1-2.6,8.9-6.3,9.2-10.8c0.2-4.5-3.3-8.1-6.4-10.8
		c-6.5-5.9-16.2-15.6-25.1-8.5c-3.5,2.8-7.1,8.1-11.8,8.8c-4.6,0.8-9.1-2.6-12.4-5.2c-7.4-6.1-14.7-14.3-19.1-22.9
		c-1.8-3.8-3.5-8.8-0.8-12.6C36.1,39,40.8,37.2,43.7,33.7z"/>
</g>
</svg>
