<?xml version="1.0" encoding="utf-8"?>
<!-- Generator: Adobe Illustrator 26.2.1, SVG Export Plug-In . SVG Version: 6.00 Build 0)  -->
<svg version="1.1" id="圖層_1" xmlns="http://www.w3.org/2000/svg" xmlns:xlink="http://www.w3.org/1999/xlink" x="0px" y="0px"
	 viewBox="0 0 32 32" style="enable-background:new 0 0 32 32;" xml:space="preserve">
<style type="text/css">
	.st0{fill:#FFFFFF;}
</style>
<g>
	<g id="Mail_2_00000183964754867470839610000014727655388859701646_">
		<path class="st0" d="M28,4.5H4c-2.2,0-4,1.8-4,4v15c0,2.2,1.8,4,4,4h24c2.2,0,4-1.8,4-4v-15C32,6.3,30.2,4.5,28,4.5z M30,23.5
			c0,1.1-0.9,2-2,2H4c-1.1,0-2-0.9-2-2v-15c0-1.1,0.9-2,2-2h24c1.1,0,2,0.9,2,2V23.5z"/>
		<path class="st0" d="M27.8,9.9c-0.3-0.4-1-0.5-1.4-0.1L16,18.2L5.6,9.7c-0.4-0.3-1-0.3-1.4,0.2c-0.3,0.4-0.3,1.1,0.1,1.4l11,9
			c0.2,0.2,0.4,0.2,0.6,0.2s0.4-0.1,0.6-0.2l11-9C28.1,10.9,28.1,10.3,27.8,9.9z"/>
	</g>
</g>
</svg>
